# xmcd CD database file generated by Grip 3.3.1
# 
# Track frame offsets:
#       150
#       10451
#       16561
#       24633
#       29914
#       37602
#       41599
#       44251
#       49324
#       51866
#       72054
#       76722
#       81033
#       85276
#       93571
#       101408
#       104887
#       109475
#       112456
#       118599
#       121923
#       126199
#       129298
#       138281
#       143976
#       151904
#       154942
#       157025
#       164073
#       168783
#       173600
#       181488
#       187323
#       195405
#       202409
#       207601
#       215630
#       224721
#       244385
#       256026
#       262375
#       273049
#       281201
#       296476
# 
# Disc length: 4098 seconds
# 
# Revision: 1
# Processed by: cddbd v1.5.2PL0 Copyright (c) Steve Scherf et al.
# Submitted via: Grip 3.3.1
# 
DISCID=a310002c
DTITLE=Kenny Sultan - The Blues Styles Of Kenny Sultan
DYEAR=2003
DGENRE=Blues
TTITLE0=Introduction - Tuning
TTITLE1=Travelin' Blues, Slow
TTITLE2=Travelin' Blues, Fast
TTITLE3=Travelin' Blues II, Slow
TTITLE4=Travelin' Blues II, Fast
TTITLE5=Red wagon Basic, Slow
TTITLE6=Red Wagon Basic, Fast
TTITLE7=Red Wagon Comp, Slow
TTITLE8=Red Wagon Comp, Fast
TTITLE9=Filler Notes
TTITLE10=Red Wagon Lead I, Slow
TTITLE11=Red Wagon Lead I, Fast
TTITLE12=Red Wagon Lead II, Slow
TTITLE13=Red Wagon Lead II, Fast
TTITLE14=Cros Cut Blues I, Slow
TTITLE15=Cross Cut Blues I, Fast
TTITLE16=Cross Cut Blues II, Slow
TTITLE17=Cross Cut Blues II, Fast
TTITLE18=Cross Cut Blues III, Slow
TTITLE19=Cross Cut Blues III, Fast
TTITLE20=Cross Cut Blues IV, Slow
TTITLE21=Cross Cut Blues IV, Fast
TTITLE22=Cross Cut Blues V, Improv
TTITLE23=The Biz Blooze
TTITLE24=Right Hand Technique
TTITLE25=Nightcrawler I, Slow
TTITLE26=Nightcrawler I, Fast
TTITLE27=Nightcrawler II, Slow
TTITLE28=Outskirts of Town
TTITLE29=Outskirts of Town II
TTITLE30=Outskirts of Town III
TTITLE31=All Talk And No Action
TTITLE32=All Talk And No Action, Lead
TTITLE33=Basically The Blues
TTITLE34=Basically The Blues II
TTITLE35=Fishin' Blues
TTITLE36=Fishin' Blues II
TTITLE37=Buck Dancers Choice
TTITLE38=Perfect Woman
TTITLE39=Conclusion
TTITLE40=Red Wagon (Bonus)
TTITLE41=All Talk And No Action (Bonus)
TTITLE42=Perfect Woman (Bonus)
TTITLE43=Buck Dancers Choice (Bonus)
EXTD=
EXTT0=
EXTT1=
EXTT2=
EXTT3=
EXTT4=
EXTT5=
EXTT6=
EXTT7=
EXTT8=
EXTT9=
EXTT10=
EXTT11=
EXTT12=
EXTT13=
EXTT14=
EXTT15=
EXTT16=
EXTT17=
EXTT18=
EXTT19=
EXTT20=
EXTT21=
EXTT22=
EXTT23=
EXTT24=
EXTT25=
EXTT26=
EXTT27=
EXTT28=
EXTT29=
EXTT30=
EXTT31=
EXTT32=
EXTT33=
EXTT34=
EXTT35=
EXTT36=
EXTT37=
EXTT38=
EXTT39=
EXTT40=
EXTT41=
EXTT42=
EXTT43=
PLAYORDER=
